<svg width="72" height="72" viewBox="0 0 72 72" fill="none" xmlns="http://www.w3.org/2000/svg">
<rect width="72" height="72" rx="8" fill="#F6FCF9"/>
<path d="M52 36C52 44.8366 44.8366 52 36 52M52 36C52 27.1634 44.8366 20 36 20M52 36H20M36 52C27.1634 52 20 44.8366 20 36M36 52C40.002 47.6186 42.2775 41.9327 42.4011 36C42.2775 30.0673 40.002 24.3814 36 20M36 52C31.998 47.6186 29.7247 41.9327 29.6011 36C29.7247 30.0673 31.998 24.3814 36 20M20 36C20 27.1634 27.1634 20 36 20M24 52C24 54.2091 22.2091 56 20 56C17.7909 56 16 54.2091 16 52C16 49.7909 17.7909 48 20 48C22.2091 48 24 49.7909 24 52ZM56 52C56 54.2091 54.2091 56 52 56C49.7909 56 48 54.2091 48 52C48 49.7909 49.7909 48 52 48C54.2091 48 56 49.7909 56 52ZM24 20C24 22.2091 22.2091 24 20 24C17.7909 24 16 22.2091 16 20C16 17.7909 17.7909 16 20 16C22.2091 16 24 17.7909 24 20ZM56 20C56 22.2091 54.2091 24 52 24C49.7909 24 48 22.2091 48 20C48 17.7909 49.7909 16 52 16C54.2091 16 56 17.7909 56 20Z" stroke="#77B893" stroke-width="3" stroke-linecap="round" stroke-linejoin="round"/>
</svg>
