<svg width="72" height="72" viewBox="0 0 72 72" fill="none" xmlns="http://www.w3.org/2000/svg">
<rect width="72" height="72" rx="8" fill="#F6FCF9"/>
<path d="M46 54V50C46 47.8783 45.1571 45.8434 43.6569 44.3431C42.1566 42.8429 40.1217 42 38 42H22C19.8783 42 17.8434 42.8429 16.3431 44.3431C14.8429 45.8434 14 47.8783 14 50V54M58 54V50C57.9987 48.2275 57.4087 46.5055 56.3227 45.1046C55.2368 43.7037 53.7163 42.7031 52 42.26M44 18.26C45.7208 18.7006 47.2461 19.7014 48.3353 21.1046C49.4245 22.5078 50.0157 24.2337 50.0157 26.01C50.0157 27.7863 49.4245 29.5122 48.3353 30.9154C47.2461 32.3186 45.7208 33.3194 44 33.76M38 26C38 30.4183 34.4183 34 30 34C25.5817 34 22 30.4183 22 26C22 21.5817 25.5817 18 30 18C34.4183 18 38 21.5817 38 26Z" stroke="#77B893" stroke-width="4" stroke-linecap="round" stroke-linejoin="round"/>
</svg>
