<svg width="186" height="47" viewBox="0 0 186 47" fill="none" xmlns="http://www.w3.org/2000/svg">
<path d="M18.3594 43.8628L24.8074 37.3631L18.3594 30.8672V43.8628Z" fill="#62A5BA"/>
<path d="M11.9082 37.3631L18.3601 43.8628V30.8672L11.9082 37.3631Z" fill="#76C8DF"/>
<path d="M11.582 24.0388L18.03 30.5385L11.582 37.0345" fill="#62A5BA"/>
<path d="M5.13086 30.5385L11.5827 37.0345V24.0388L5.13086 30.5385Z" fill="#76C8DF"/>
<path d="M18.6855 30.5385L25.1335 37.0345L31.5854 30.5385" fill="#62A5BA"/>
<path d="M31.5854 30.5385L25.1335 24.0388L18.6855 30.5385" fill="#76C8DF"/>
<path d="M11.9082 23.7102L18.3601 30.2061L24.8081 23.7102" fill="#62A5BA"/>
<path d="M24.8081 23.7102L18.3601 17.2142L11.9082 23.7102" fill="#76C8DF"/>
<path d="M25.4629 37.3631L31.9148 43.8628L38.3628 37.3631H25.4629Z" fill="#78B995"/>
<path d="M38.3628 37.3631L31.9148 30.8672L25.4629 37.3631" fill="#87CCA3"/>
<path d="M5.13086 16.8818L11.5827 23.3777L18.0307 16.8818H5.13086Z" fill="#62A5BA"/>
<path d="M5.13086 16.8818H18.0307L11.5827 10.3859L5.13086 16.8818Z" fill="#76C8DF"/>
<path d="M31.9141 17.2142L38.3621 23.7102L31.9141 30.2061" fill="#78B995"/>
<path d="M31.9148 30.2061L25.4629 23.7102L31.9148 17.2142" fill="#87CCA3"/>
<path d="M25.1328 10.3859L31.5847 16.8818L25.1328 23.3777" fill="#78B995"/>
<path d="M25.1335 23.3777L18.6855 16.8818L25.1335 10.3859" fill="#87CCA3"/>
<path d="M38.6914 24.0388L45.1394 30.5385L38.6914 37.0345" fill="#C4C46F"/>
<path d="M38.6921 37.0345L32.2402 30.5385L38.6921 24.0388" fill="#DBDD7F"/>
<path d="M45.4658 43.8628L51.9177 37.3631L45.4658 30.8672V43.8628Z" fill="#78B995"/>
<path d="M39.0176 37.3631L45.4656 43.8628V30.8672L39.0176 37.3631Z" fill="#87CCA3"/>
<path d="M18.3594 3.55748V16.5493L24.8074 10.0534L18.3594 3.55748Z" fill="#62A5BA"/>
<path d="M18.3601 3.55748L11.9082 10.0534L18.3601 16.5493V3.55748Z" fill="#76C8DF"/>
<path d="M32.2402 16.8818L38.6921 23.3777L45.1401 16.8818" fill="#C4C46F"/>
<path d="M45.1401 16.8818L38.6921 10.3859L32.2402 16.8818" fill="#DBDD7F"/>
<path d="M25.4629 10.0534L31.9148 16.5493L38.3628 10.0534" fill="#62A5BA"/>
<path d="M31.9148 3.55748L25.4629 10.0534H38.3628L31.9148 3.55748Z" fill="#76C8DF"/>
<path d="M39.0176 23.7102L45.4656 30.2061L51.9174 23.7102" fill="#E1873E"/>
<path d="M51.9174 23.7102L45.4656 17.2142L39.0176 23.7102" fill="#F7964C"/>
<path d="M45.7949 30.5385L52.2468 37.0345L58.6948 30.5385" fill="#C4C46F"/>
<path d="M58.6948 30.5385L52.2468 24.0388L45.7949 30.5385" fill="#DBDD7F"/>
<path d="M45.4658 3.55748V16.5493L51.9177 10.0534L45.4658 3.55748Z" fill="#78B995"/>
<path d="M45.4656 3.55748L39.0176 10.0534L45.4656 16.5493V3.55748Z" fill="#87CCA3"/>
<path d="M52.2471 10.3859L58.6951 16.8818L52.2471 23.3777" fill="#C4C46F"/>
<path d="M52.2468 23.3777L45.7949 16.8818L52.2468 10.3859" fill="#DBDD7F"/>
<path d="M83.0919 17.3136V30.3628H82.3595V18.1084L77.3452 24.7228L72.3232 18.1084V30.3628H71.5947V17.3136H72.6565L77.3452 23.5L82.0262 17.3136H83.0919Z" fill="#808283"/>
<path d="M92.9105 23.8936L90.9381 18.4217L88.958 23.8936H92.9105ZM91.314 17.3136L96.0183 30.3628H95.251L93.1779 24.6234H88.6984L86.5904 30.3628H85.8115L90.5661 17.3136H91.314Z" fill="#808283"/>
<path d="M99.6806 18.0587V25.0934H101.878C102.835 25.0934 103.656 24.7533 104.338 24.0617C105.028 23.3777 105.369 22.5485 105.369 21.5665C105.369 20.5845 105.028 19.7667 104.338 19.0828C103.656 18.3988 102.835 18.0549 101.878 18.0549H99.6806V18.0587ZM99.6806 25.8424V30.3666H98.9482V17.3174H102.343C103.335 17.4511 104.172 17.8676 104.865 18.5669C105.691 19.3999 106.101 20.4049 106.101 21.5703C106.101 22.7358 105.691 23.7598 104.865 24.5928C104.04 25.4259 103.044 25.8424 101.882 25.8424H99.6845H99.6806Z" fill="#808283"/>
<path d="M113.666 28.9146C114.429 28.9146 115.099 28.628 115.665 28.0548C116.239 27.4778 116.521 26.7633 116.521 25.9073C116.521 25.0514 116.235 24.3368 115.665 23.756C115.099 23.1752 114.429 22.8886 113.666 22.8886H111.263V28.9146H113.666ZM111.263 18.5249V21.4404H113.921C114.282 21.406 114.561 21.2837 114.758 21.0812C115.026 20.8176 115.157 20.4622 115.157 20.0189C115.157 19.5757 115.018 19.2318 114.739 18.949C114.452 18.6624 114.134 18.5249 113.786 18.5249H111.263ZM116.917 22.7854C117.773 23.649 118.199 24.6922 118.199 25.9073C118.199 27.1224 117.758 28.1618 116.874 29.0559C116.161 29.782 115.25 30.2176 114.162 30.3666H109.612V17.0843H113.801C114.661 17.0843 115.374 17.3747 115.96 17.9593C116.541 18.544 116.828 19.228 116.828 20.0189C116.828 20.8099 116.549 21.4901 115.979 22.0594C116.18 22.1091 116.494 22.3498 116.921 22.7854" fill="#87CCA3"/>
<path d="M123.329 17.0843H121.671V30.3666H123.329V17.0843Z" fill="#87CCA3"/>
<path d="M133.742 18.3567C132.335 18.3567 131.122 18.8764 130.095 19.9119C129.072 20.9475 128.557 22.2123 128.557 23.6987C128.557 25.1851 129.072 26.469 130.095 27.5007C131.126 28.5363 132.339 29.0521 133.742 29.0521C135.144 29.0521 136.373 28.5324 137.4 27.5007C138.426 26.469 138.938 25.2004 138.938 23.6987C138.938 22.197 138.426 20.9475 137.4 19.9119C136.373 18.8764 135.152 18.3567 133.742 18.3567ZM138.612 18.907C139.942 20.252 140.604 21.8454 140.604 23.6987C140.604 25.5519 139.942 27.1645 138.612 28.5057C137.283 29.8431 135.66 30.5118 133.742 30.5118C131.824 30.5118 130.212 29.8431 128.882 28.5057C127.553 27.1645 126.891 25.5672 126.891 23.6987C126.891 21.8302 127.553 20.252 128.882 18.907C130.212 17.5696 131.831 16.8971 133.742 16.8971C135.652 16.8971 137.283 17.5696 138.612 18.907Z" fill="#87CCA3"/>
<path d="M155.903 17.0843V30.3628H154.245V19.5642L149.916 25.2998L145.573 19.5642V30.3628H143.91V17.0843H145.681L149.916 22.667L154.14 17.0843H155.903Z" fill="#87CCA3"/>
<path d="M165.439 23.4045L164.18 19.8814L162.901 23.4045H165.439ZM164.901 17.0843L169.671 30.3666H167.946L165.962 24.8489H162.378L160.359 30.3666H158.623L163.455 17.0843H164.901Z" fill="#87CCA3"/>
<path d="M176.782 23.3777C175.836 23.0644 175.077 22.6173 174.499 22.0403C173.926 21.4595 173.639 20.7641 173.639 19.9463C173.639 19.1286 173.934 18.4446 174.53 17.8371C175.127 17.2295 175.867 16.9276 176.755 16.9276C177.642 16.9276 178.374 17.241 178.998 17.8638C179.324 18.181 179.576 18.6319 179.762 19.2089L178.278 19.7897C178.095 19.2967 177.929 18.972 177.782 18.8229C177.483 18.5172 177.138 18.3606 176.759 18.3606C176.379 18.3606 176.038 18.5096 175.743 18.8115C175.449 19.1057 175.305 19.4916 175.305 19.9502C175.305 20.4087 175.453 20.7908 175.759 21.1118C176.077 21.4175 176.511 21.7041 177.065 21.9601C178.115 22.304 178.991 22.8351 179.704 23.5497C180.513 24.3598 180.92 25.3189 180.92 26.427C180.92 27.5351 180.517 28.4942 179.715 29.3043C178.913 30.1106 177.929 30.5156 176.762 30.5156C175.596 30.5156 174.592 30.0991 173.783 29.2699C173.147 28.6356 172.756 27.8141 172.608 26.8053L174.209 26.2245C174.302 27.1912 174.573 27.8943 175.023 28.3376C175.511 28.8267 176.088 29.075 176.762 29.075C177.437 29.075 178.03 28.819 178.533 28.3146C179.037 27.8102 179.285 27.1798 179.285 26.427C179.285 25.6742 179.041 25.0514 178.545 24.5546C178.049 24.0541 177.46 23.6605 176.786 23.3815" fill="#87CCA3"/>
</svg>
