<svg width="16" height="16" viewBox="0 0 16 16" fill="none" xmlns="http://www.w3.org/2000/svg">
<g clip-path="url(#clip0_9705_513)">
<path d="M8 16C12.4183 16 16 12.4183 16 8C16 3.58172 12.4183 0 8 0C3.58172 0 0 3.58172 0 8C0 12.4183 3.58172 16 8 16Z" fill="#F0F0F0"/>
<path d="M8.00111 -0.000610352C4.82942 -0.000610352 2.08892 1.84517 0.794922 4.52114H15.2073C13.9133 1.84517 11.1728 -0.000610352 8.00111 -0.000610352Z" fill="#338AF3"/>
<path d="M8.00111 15.9992C11.1728 15.9992 13.9133 14.1534 15.2073 11.4774H0.794922C2.08892 14.1534 4.82942 15.9992 8.00111 15.9992Z" fill="#338AF3"/>
<path d="M10.3916 8.00006L9.41453 8.45965L9.93481 9.40587L8.87388 9.2029L8.73944 10.2746L8.00047 9.4864L7.26147 10.2746L7.12706 9.2029L6.06612 9.40583L6.58637 8.45962L5.60938 8.00006L6.58641 7.54046L6.06612 6.59428L7.12703 6.79721L7.2615 5.72546L8.00047 6.51371L8.73947 5.72546L8.87388 6.79721L9.93484 6.59428L9.41456 7.54049L10.3916 8.00006Z" fill="#FFDA44"/>
</g>
<defs>
<clipPath id="clip0_9705_513">
<rect width="16" height="16" fill="white"/>
</clipPath>
</defs>
</svg>
