<svg width="12" height="12" viewBox="0 0 12 12" fill="none" xmlns="http://www.w3.org/2000/svg">
<g clip-path="url(#clip0_9644_52427)">
<path d="M6 12C9.31371 12 12 9.31371 12 6C12 2.68629 9.31371 0 6 0C2.68629 0 0 2.68629 0 6C0 9.31371 2.68629 12 6 12Z" fill="#6DA544"/>
<path d="M6.00046 2.34805L10.957 6.00022L6.00046 9.65239L1.04395 6.00022L6.00046 2.34805Z" fill="#FFDA44"/>
<path d="M6.00003 8.08692C7.15262 8.08692 8.08698 7.15256 8.08698 5.99997C8.08698 4.84738 7.15262 3.91302 6.00003 3.91302C4.84744 3.91302 3.91309 4.84738 3.91309 5.99997C3.91309 7.15256 4.84744 8.08692 6.00003 8.08692Z" fill="#F0F0F0"/>
<path d="M4.95687 5.86976C4.59396 5.86976 4.24373 5.92496 3.91406 6.02738C3.92866 7.16738 4.85688 8.08716 6.00035 8.08716C6.70741 8.08716 7.33188 7.7352 7.70939 7.19728C7.06352 6.38876 6.06975 5.86976 4.95687 5.86976Z" fill="#0052B4"/>
<path d="M8.04905 6.39991C8.07418 6.27044 8.08775 6.13687 8.08775 6.00007C8.08775 4.84746 7.15339 3.91312 6.0008 3.91312C5.14079 3.91312 4.40251 4.43346 4.08301 5.17638C4.36543 5.11786 4.65784 5.08704 4.95734 5.08704C6.16946 5.08701 7.26601 5.59087 8.04905 6.39991Z" fill="#0052B4"/>
</g>
<defs>
<clipPath id="clip0_9644_52427">
<rect width="12" height="12" fill="white"/>
</clipPath>
</defs>
</svg>
