<svg width="16" height="16" viewBox="0 0 16 16" fill="none" xmlns="http://www.w3.org/2000/svg">
<g clip-path="url(#clip0_9897_604)">
<path d="M15.111 4.33226C14.7413 3.61604 14.2568 2.94379 13.6564 2.34342C13.056 1.74301 12.3838 1.25848 11.6676 0.888855L6.03166 6.03279L0.887695 11.6687C1.25735 12.3849 1.74188 13.0572 2.34226 13.6576C2.94263 14.2579 3.61491 14.7425 4.3311 15.1121L9.96701 9.96817L15.111 4.33226Z" fill="#FFDA44"/>
<path d="M2.34271 13.657C2.6783 13.9926 3.0364 14.2919 3.41199 14.5554L14.5552 3.41211C14.2918 3.03652 13.9925 2.67843 13.6569 2.34283C13.3212 2.00724 12.9632 1.70796 12.5876 1.44446L1.44434 12.5877C1.7078 12.9632 2.00709 13.3214 2.34271 13.657Z" fill="#D80027"/>
<path d="M2.34294 2.34293C-0.181028 4.8669 -0.665559 8.65747 0.888379 11.6682L11.6683 0.888402C8.65744 -0.665504 4.86688 -0.18091 2.34294 2.34293Z" fill="#338AF3"/>
<path d="M13.6573 13.6567C16.1812 11.1328 16.6657 7.34221 15.1119 4.33142L4.33203 15.1113C7.34281 16.6652 11.1334 16.1807 13.6573 13.6567Z" fill="#338AF3"/>
<path d="M4.26332 2.43408L4.69501 3.76274H6.09201L4.96182 4.58386L5.39351 5.91249L4.26332 5.09133L3.13307 5.91249L3.56482 4.58386L2.43457 3.76274H3.83157L4.26332 2.43408Z" fill="#FFDA44"/>
</g>
<defs>
<clipPath id="clip0_9897_604">
<rect width="16" height="16" fill="white"/>
</clipPath>
</defs>
</svg>
