<svg width="16" height="16" viewBox="0 0 16 16" fill="none" xmlns="http://www.w3.org/2000/svg">
<g clip-path="url(#clip0_9897_5382)">
<path d="M8 16C12.4183 16 16 12.4183 16 8C16 3.58172 12.4183 0 8 0C3.58172 0 0 3.58172 0 8C0 12.4183 3.58172 16 8 16Z" fill="#F0F0F0"/>
<path d="M16 8.00017C16 12.4184 12.4183 16.0002 8 16.0002C3.58175 16.0002 0 12.4184 0 8.00017C0 3.58192 8 8.00017 8 8.00017C8 8.00017 14.055 8.00017 16 8.00017Z" fill="#D80027"/>
<path d="M0 8C0 3.58175 3.58175 0 8 0C8 3.04234 8 8 8 8C8 8 2.78259 8 0 8Z" fill="#0052B4"/>
<path d="M4.76176 2.78229L5.27979 4.3766H6.95613L5.59994 5.36191L6.11795 6.95622L4.76176 5.97088L3.40557 6.95622L3.92357 5.36191L2.56738 4.3766H4.24373L4.76176 2.78229Z" fill="#F0F0F0"/>
</g>
<defs>
<clipPath id="clip0_9897_5382">
<rect width="16" height="16" fill="white"/>
</clipPath>
</defs>
</svg>
