<svg width="16" height="16" viewBox="0 0 16 16" fill="none" xmlns="http://www.w3.org/2000/svg">
<g clip-path="url(#clip0_9897_6094)">
<path d="M8 16C12.4183 16 16 12.4183 16 8C16 3.58172 12.4183 0 8 0C3.58172 0 0 3.58172 0 8C0 12.4183 3.58172 16 8 16Z" fill="#F0F0F0"/>
<path d="M8.00015 -0.000610352C6.58574 -0.000610352 5.25737 0.366952 4.10449 1.01101V14.9878C5.2574 15.6318 6.58574 15.9994 8.00015 15.9994C12.4184 15.9994 16.0002 12.4176 16.0002 7.99939C16.0002 3.58114 12.4184 -0.000610352 8.00015 -0.000610352Z" fill="#6DA544"/>
<path d="M4.12818 0.998779C3.6249 1.27769 3.15496 1.60919 2.72562 1.98606C2.76902 1.948 2.81287 1.91037 2.85705 1.87325L8.98409 8.00031L2.85702 14.1274C2.8128 14.0903 2.76899 14.0526 2.72559 14.0146C3.15493 14.3914 3.6249 14.7229 4.12815 15.0018L16.0003 8.00031L4.12818 0.998779Z" fill="#F0F0F0"/>
<path d="M3.45257 1.41797C3.2086 1.58691 2.97429 1.76869 2.75101 1.96297L8.00038 7.99978L2.75098 14.0366C2.97426 14.2309 3.20857 14.4127 3.45254 14.5816L14.6309 7.99978L3.45257 1.41797Z" fill="#FFDA44"/>
<path d="M2.85637 1.87323C2.67852 2.02267 2.5069 2.17932 2.34277 2.34342L7.304 8.00029L2.34277 13.6572C2.5069 13.8213 2.67849 13.978 2.85637 14.1274L8.98343 8.00029L2.85637 1.87323Z" fill="black"/>
<path d="M2.34314 2.34283C-0.781047 5.46702 -0.781047 10.5324 2.34314 13.6566C3.63417 12.3656 4.87583 11.1239 8.00002 7.99971L2.34314 2.34283Z" fill="#D80027"/>
</g>
<defs>
<clipPath id="clip0_9897_6094">
<rect width="16" height="16" fill="white"/>
</clipPath>
</defs>
</svg>
