<svg width="16" height="16" viewBox="0 0 16 16" fill="none" xmlns="http://www.w3.org/2000/svg">
<g clip-path="url(#clip0_9897_5551)">
<path d="M8 16C12.4183 16 16 12.4183 16 8C16 3.58172 12.4183 0 8 0C3.58172 0 0 3.58172 0 8C0 12.4183 3.58172 16 8 16Z" fill="#F0F0F0"/>
<path d="M8.00013 -0.000610352C4.82844 -0.000610352 2.08795 1.84517 0.793945 4.52114H15.2063C13.9123 1.84517 11.1718 -0.000610352 8.00013 -0.000610352Z" fill="#FF9811"/>
<path d="M8.00013 15.9998C11.1718 15.9998 13.9123 14.154 15.2063 11.478H0.793945C2.08795 14.154 4.82844 15.9998 8.00013 15.9998Z" fill="#6DA544"/>
<path d="M8.00037 10.7821C9.53715 10.7821 10.783 9.5363 10.783 7.99951C10.783 6.46273 9.53715 5.21692 8.00037 5.21692C6.46358 5.21692 5.21777 6.46273 5.21777 7.99951C5.21777 9.5363 6.46358 10.7821 8.00037 10.7821Z" fill="#0052B4"/>
<path d="M7.99986 9.73868C8.96036 9.73868 9.73899 8.96005 9.73899 7.99956C9.73899 7.03907 8.96036 6.26044 7.99986 6.26044C7.03937 6.26044 6.26074 7.03907 6.26074 7.99956C6.26074 8.96005 7.03937 9.73868 7.99986 9.73868Z" fill="#F0F0F0"/>
<path d="M8.00014 5.85394L8.53667 7.07076L9.85867 6.92697L9.07317 8.00001L9.85867 9.07304L8.53667 8.92926L8.00014 10.1461L7.4636 8.92926L6.1416 9.07301L6.9271 8.00001L6.1416 6.92697L7.4636 7.07076L8.00014 5.85394Z" fill="#0052B4"/>
</g>
<defs>
<clipPath id="clip0_9897_5551">
<rect width="16" height="16" fill="white"/>
</clipPath>
</defs>
</svg>
