<svg width="16" height="16" viewBox="0 0 16 16" fill="none" xmlns="http://www.w3.org/2000/svg">
<g clip-path="url(#clip0_9897_96)">
<path d="M8 16C12.4183 16 16 12.4183 16 8C16 3.58172 12.4183 0 8 0C3.58172 0 0 3.58172 0 8C0 12.4183 3.58172 16 8 16Z" fill="#F0F0F0"/>
<path d="M8.00013 0C4.82845 0 2.08795 1.84578 0.793945 4.52175H15.2063C13.9123 1.84578 11.1718 0 8.00013 0Z" fill="#D80027"/>
<path d="M8.00013 16.0005C11.1718 16.0005 13.9123 14.1547 15.2063 11.4788H0.793945C2.08795 14.1547 4.82845 16.0005 8.00013 16.0005Z" fill="#0052B4"/>
<path d="M9.96696 5.68445L9.22911 6.42229C9.54383 6.73701 9.73852 7.17179 9.73852 7.65204C9.73852 8.61254 8.95986 9.39117 7.99939 9.39117C7.03892 9.39117 6.26027 8.61251 6.26027 7.65204C6.26027 7.17179 6.45495 6.73701 6.76967 6.42229L6.03183 5.68445C5.52823 6.18795 5.2168 6.88361 5.2168 7.65204C5.2168 9.18886 6.46261 10.4346 7.99939 10.4346C9.53618 10.4346 10.782 9.18883 10.782 7.65204C10.782 6.88361 10.4705 6.18795 9.96696 5.68445Z" fill="#6DA544"/>
<path d="M7.99953 6.6084L8.25856 7.40559H9.09672L8.41862 7.89821L8.67765 8.69536L7.99953 8.20271L7.32141 8.69536L7.58044 7.89821L6.90234 7.40559H7.7405L7.99953 6.6084Z" fill="#FFDA44"/>
</g>
<defs>
<clipPath id="clip0_9897_96">
<rect width="16" height="16" fill="white"/>
</clipPath>
</defs>
</svg>
