<svg width="16" height="16" viewBox="0 0 16 16" fill="none" xmlns="http://www.w3.org/2000/svg">
<g clip-path="url(#clip0_9897_570)">
<path d="M15.2062 11.4778C15.7148 10.426 16 9.24613 16 7.99953C16 6.75294 15.7148 5.57303 15.2062 4.52128L8 3.82562L0.793813 4.52128C0.285219 5.57303 0 6.75294 0 7.99953C0 9.24613 0.285219 10.426 0.793813 11.4778L8 12.1734L15.2062 11.4778Z" fill="#0052B4"/>
<path d="M8.00013 16.0003C11.1718 16.0003 13.9123 14.1545 15.2063 11.4785H0.793945C2.08795 14.1545 4.82844 16.0003 8.00013 16.0003Z" fill="#D80027"/>
<path d="M13.8543 9.57064L13.4317 9.90082L13.6151 10.4046L13.1705 10.1048L12.748 10.435L12.8957 9.91948L12.4512 9.61961L12.9871 9.60092L13.135 9.08545L13.3184 9.58932L13.8543 9.57064Z" fill="#F0F0F0"/>
<path d="M12.7724 7.69624L12.4883 8.15101L12.833 8.5617L12.3126 8.43214L12.0285 8.88679L11.991 8.35189L11.4707 8.22211L11.968 8.0212L11.9306 7.48627L12.2752 7.89711L12.7724 7.69624Z" fill="#F0F0F0"/>
<path d="M11.1146 6.30554L11.0032 6.83007L11.4675 7.0982L10.9343 7.15442L10.8228 7.67879L10.6046 7.18898L10.0713 7.24495L10.4699 6.88614L10.2518 6.39632L10.7161 6.66439L11.1146 6.30554Z" fill="#F0F0F0"/>
<path d="M9.08157 5.56531L9.15629 6.09634L9.68432 6.1894L9.20238 6.42459L9.27704 6.95559L8.90454 6.56984L8.42248 6.8049L8.67429 6.33137L8.30176 5.94568L8.82988 6.03878L9.08157 5.56531Z" fill="#F0F0F0"/>
<path d="M6.91815 5.56531L7.16993 6.03878L7.69793 5.94562L7.32552 6.33146L7.57718 6.80496L7.09524 6.56984L6.72268 6.95549L6.7974 6.42459L6.31543 6.18953L6.84352 6.09634L6.91815 5.56531Z" fill="#F0F0F0"/>
<path d="M4.88409 6.30554L5.28266 6.66439L5.74694 6.39632L5.52891 6.88632L5.92738 7.24507L5.39409 7.18898L5.17591 7.67879L5.06456 7.15432L4.53125 7.09832L4.99563 6.83014L4.88409 6.30554Z" fill="#F0F0F0"/>
<path d="M3.22648 7.69627L3.72376 7.89714L4.06833 7.48639L4.03105 8.02142L4.52817 8.22233L4.00789 8.35199L3.97042 8.88683L3.68636 8.43217L3.16602 8.56183L3.5107 8.15105L3.22648 7.69627Z" fill="#F0F0F0"/>
<path d="M2.14453 9.57076L2.68053 9.58945L2.86384 9.08563L3.01181 9.60113L3.54766 9.61985L3.10309 9.91973L3.25084 10.4352L2.82834 10.105L2.38375 10.4048L2.56716 9.90095L2.14453 9.57076Z" fill="#F0F0F0"/>
<path d="M15.2063 4.52144C13.9123 1.84548 11.1718 -0.000305176 8.00013 -0.000305176C4.82844 -0.000305176 2.08795 1.84548 0.793945 4.52144H15.2063Z" fill="#FFDA44"/>
</g>
<defs>
<clipPath id="clip0_9897_570">
<rect width="16" height="16" fill="white"/>
</clipPath>
</defs>
</svg>
