<svg width="16" height="16" viewBox="0 0 16 16" fill="none" xmlns="http://www.w3.org/2000/svg">
<g clip-path="url(#clip0_9705_139)">
<path d="M16 8.00043C16 7.02187 15.824 6.08446 15.5024 5.21784L8 4.87L0.497594 5.21781C0.176 6.08446 0 7.02187 0 8.00043C0 8.97899 0.176 9.9164 0.497594 10.783L8 11.1309L15.5024 10.7831C15.824 9.9164 16 8.97899 16 8.00043Z" fill="#FFDA44"/>
<path d="M8.00045 15.9999C11.4402 15.9999 14.3725 13.8289 15.5029 10.7825H0.498047C1.62839 13.8289 4.56073 15.9999 8.00045 15.9999Z" fill="#6DA544"/>
<path d="M0.498047 5.21759H15.5029C14.3725 2.17118 11.4402 0.000183105 8.00045 0.000183105C4.56073 0.000183105 1.62839 2.17118 0.498047 5.21759Z" fill="#D80027"/>
</g>
<defs>
<clipPath id="clip0_9705_139">
<rect width="16" height="16" fill="white"/>
</clipPath>
</defs>
</svg>
