<svg width="15" height="19" viewBox="0 0 15 19" fill="none" xmlns="http://www.w3.org/2000/svg">
<path d="M9.16927 0.834961H2.50261C2.06058 0.834961 1.63666 1.01056 1.3241 1.32312C1.01154 1.63568 0.835938 2.0596 0.835938 2.50163V15.835C0.835938 16.277 1.01154 16.7009 1.3241 17.0135C1.63666 17.326 2.06058 17.5016 2.50261 17.5016H12.5026C12.9447 17.5016 13.3686 17.326 13.6811 17.0135C13.9937 16.7009 14.1693 16.277 14.1693 15.835V5.83496M9.16927 0.834961L14.1693 5.83496M9.16927 0.834961V5.83496H14.1693M10.836 10.0016H4.16927M10.836 13.335H4.16927M5.83594 6.66829H4.16927" stroke="#404040" stroke-width="1.67" stroke-linecap="round" stroke-linejoin="round"/>
</svg>
