<svg width="56" height="56" viewBox="0 0 56 56" fill="none" xmlns="http://www.w3.org/2000/svg">
<rect x="4" y="4" width="48" height="48" rx="24" fill="#F2F8F5"/>
<rect x="4" y="4" width="48" height="48" rx="24" stroke="#F6FCF9" stroke-width="8"/>
<path d="M25 28H20.6C20.0399 28 19.7599 28 19.546 28.109C19.3578 28.2049 19.2049 28.3578 19.109 28.546C19 28.7599 19 29.0399 19 29.6V35.4C19 35.9601 19 36.2401 19.109 36.454C19.2049 36.6422 19.3578 36.7951 19.546 36.891C19.7599 37 20.0399 37 20.6 37H25M25 37H31M25 37L25 24.6C25 24.0399 25 23.7599 25.109 23.546C25.2049 23.3578 25.3578 23.2049 25.546 23.109C25.7599 23 26.0399 23 26.6 23H29.4C29.9601 23 30.2401 23 30.454 23.109C30.6422 23.2049 30.7951 23.3578 30.891 23.546C31 23.7599 31 24.0399 31 24.6V37M31 37H35.4C35.9601 37 36.2401 37 36.454 36.891C36.6422 36.7951 36.7951 36.6422 36.891 36.454C37 36.2401 37 35.9601 37 35.4V20.6C37 20.0399 37 19.7599 36.891 19.546C36.7951 19.3578 36.6422 19.2049 36.454 19.109C36.2401 19 35.9601 19 35.4 19H32.6C32.0399 19 31.7599 19 31.546 19.109C31.3578 19.2049 31.2049 19.3578 31.109 19.546C31 19.7599 31 20.0399 31 20.6V24" stroke="#77B893" stroke-width="2" stroke-linecap="round" stroke-linejoin="round"/>
</svg>
