<svg width="56" height="56" viewBox="0 0 56 56" fill="none" xmlns="http://www.w3.org/2000/svg">
<rect x="4" y="4" width="48" height="48" rx="24" fill="#F2F8F5"/>
<rect x="4" y="4" width="48" height="48" rx="24" stroke="#F6FCF9" stroke-width="8"/>
<path d="M20 34V33.8C20 32.1198 20 31.2798 20.327 30.638C20.6146 30.0735 21.0735 29.6146 21.638 29.327C22.2798 29 23.1198 29 24.8 29H31.2C32.8802 29 33.7202 29 34.362 29.327C34.9265 29.6146 35.3854 30.0735 35.673 30.638C36 31.2798 36 32.1198 36 33.8V34M20 34C18.8954 34 18 34.8954 18 36C18 37.1046 18.8954 38 20 38C21.1046 38 22 37.1046 22 36C22 34.8954 21.1046 34 20 34ZM36 34C34.8954 34 34 34.8954 34 36C34 37.1046 34.8954 38 36 38C37.1046 38 38 37.1046 38 36C38 34.8954 37.1046 34 36 34ZM28 34C26.8954 34 26 34.8954 26 36C26 37.1046 26.8954 38 28 38C29.1046 38 30 37.1046 30 36C30 34.8954 29.1046 34 28 34ZM28 34V24M22 24H34C34.9319 24 35.3978 24 35.7654 23.8478C36.2554 23.6448 36.6448 23.2554 36.8478 22.7654C37 22.3978 37 21.9319 37 21C37 20.0681 37 19.6022 36.8478 19.2346C36.6448 18.7446 36.2554 18.3552 35.7654 18.1522C35.3978 18 34.9319 18 34 18H22C21.0681 18 20.6022 18 20.2346 18.1522C19.7446 18.3552 19.3552 18.7446 19.1522 19.2346C19 19.6022 19 20.0681 19 21C19 21.9319 19 22.3978 19.1522 22.7654C19.3552 23.2554 19.7446 23.6448 20.2346 23.8478C20.6022 24 21.0681 24 22 24Z" stroke="#77B893" stroke-width="2" stroke-linecap="round" stroke-linejoin="round"/>
</svg>
