<svg width="10" height="10" viewBox="0 0 10 10" fill="none" xmlns="http://www.w3.org/2000/svg">
<path d="M4.82685 0.660854C4.67061 0.504563 4.45868 0.416734 4.23768 0.416687H1.24935C1.02834 0.416687 0.816374 0.504484 0.660093 0.660765C0.503813 0.817045 0.416016 1.02901 0.416016 1.25002V4.23835C0.416063 4.45935 0.503891 4.67128 0.660182 4.82752L4.28685 8.45419C4.47623 8.64237 4.73237 8.74799 4.99935 8.74799C5.26633 8.74799 5.52247 8.64237 5.71185 8.45419L8.45352 5.71252C8.6417 5.52314 8.74732 5.267 8.74732 5.00002C8.74732 4.73304 8.6417 4.4769 8.45352 4.28752L4.82685 0.660854Z" stroke="#84CAA0" stroke-width="0.833333" stroke-linecap="round" stroke-linejoin="round"/>
</svg>
