<svg width="16" height="16" viewBox="0 0 16 16" fill="none" xmlns="http://www.w3.org/2000/svg">
<g clip-path="url(#clip0_9897_123)">
<path d="M0 8C0 3.58175 3.58175 0 8 0C12.4183 0 16 3.58175 16 8L8 8.69566L0 8Z" fill="#FFDA44"/>
<path d="M1.07031 12.0006C2.45359 14.3917 5.03872 16.0006 7.99981 16.0006C10.9609 16.0006 13.546 14.3917 14.9293 12.0006L7.99981 11.4788L1.07031 12.0006Z" fill="#D80027"/>
<path d="M14.9295 12.0001C15.6102 10.8234 16 9.45734 16 8.00012H0C0 9.45734 0.389813 10.8234 1.0705 12.0001H14.9295Z" fill="#0052B4"/>
<path d="M7.99939 10.783C9.53618 10.783 10.782 9.53715 10.782 8.00037C10.782 6.46358 9.53618 5.21777 7.99939 5.21777C6.46261 5.21777 5.2168 6.46358 5.2168 8.00037C5.2168 9.53715 6.46261 10.783 7.99939 10.783Z" fill="#FFDA44"/>
<path d="M7.99986 9.73949C7.0409 9.73949 6.26074 8.9593 6.26074 8.00036V6.9569C6.26074 5.99793 7.04093 5.21777 7.99986 5.21777C8.9588 5.21777 9.73899 5.99796 9.73899 6.9569V8.00036C9.73899 8.95933 8.95883 9.73949 7.99986 9.73949Z" fill="#338AF3"/>
<path d="M10.7821 3.82664H8.69508C8.69508 3.44245 8.38361 3.13098 7.99942 3.13098C7.61524 3.13098 7.30377 3.44245 7.30377 3.82664H5.2168C5.2168 4.21086 5.55145 4.5223 5.93561 4.5223H5.91245C5.91245 4.90651 6.22389 5.21795 6.60811 5.21795C6.60811 5.60217 6.91955 5.91361 7.30377 5.91361H8.69508C9.0793 5.91361 9.39074 5.60217 9.39074 5.21795C9.77496 5.21795 10.0864 4.90651 10.0864 4.5223H10.0632C10.4474 4.5223 10.7821 4.21083 10.7821 3.82664Z" fill="black"/>
</g>
<defs>
<clipPath id="clip0_9897_123">
<rect width="16" height="16" fill="white"/>
</clipPath>
</defs>
</svg>
