<svg width="16" height="16" viewBox="0 0 16 16" fill="none" xmlns="http://www.w3.org/2000/svg">
<g clip-path="url(#clip0_9897_5818)">
<path d="M8 16C12.4183 16 16 12.4183 16 8C16 3.58172 12.4183 0 8 0C3.58172 0 0 3.58172 0 8C0 12.4183 3.58172 16 8 16Z" fill="#F0F0F0"/>
<path d="M16.0003 7.99983C16.0003 4.82814 14.1545 2.08764 11.4785 0.79364V15.206C14.1545 13.912 16.0003 11.1715 16.0003 7.99983Z" fill="#D80027"/>
<path d="M0 7.99983C0 11.1715 1.84578 13.912 4.52175 15.206V0.79364C1.84578 2.08764 0 4.82814 0 7.99983Z" fill="#6DA544"/>
<path d="M5.91309 7.99955C5.91309 9.15214 6.84746 10.0865 8.00005 10.0865C9.15265 10.0865 10.087 9.15214 10.087 7.99955V7.30389H5.91309V7.99955Z" fill="#6DA544"/>
<path d="M10.7821 6.60892H8.69508C8.69508 6.22474 8.38361 5.91327 7.99942 5.91327C7.61524 5.91327 7.30377 6.22474 7.30377 6.60892H5.2168C5.2168 6.99314 5.55145 7.30458 5.93561 7.30458H5.91245C5.91245 7.6888 6.22389 8.00023 6.60811 8.00023C6.60811 8.38445 6.91955 8.69589 7.30377 8.69589H8.69508C9.0793 8.69589 9.39074 8.38445 9.39074 8.00023C9.77496 8.00023 10.0864 7.6888 10.0864 7.30458H10.0632C10.4474 7.30458 10.7821 6.99314 10.7821 6.60892Z" fill="#FF9811"/>
</g>
<defs>
<clipPath id="clip0_9897_5818">
<rect width="16" height="16" fill="white"/>
</clipPath>
</defs>
</svg>
