<svg width="16" height="16" viewBox="0 0 16 16" fill="none" xmlns="http://www.w3.org/2000/svg">
<g clip-path="url(#clip0_9897_5542)">
<path d="M8 16C12.4183 16 16 12.4183 16 8C16 3.58172 12.4183 0 8 0C3.58172 0 0 3.58172 0 8C0 12.4183 3.58172 16 8 16Z" fill="#F0F0F0"/>
<path d="M16.0006 8.00097C16.0006 4.56128 13.8296 1.62891 10.7832 0.498596V15.5034C13.8296 14.373 16.0006 11.4407 16.0006 8.00097Z" fill="#D80027"/>
<path d="M0 8.00042C0 11.4402 2.171 14.3725 5.21741 15.5029V0.498047C2.171 1.62836 0 4.56073 0 8.00042Z" fill="#D80027"/>
</g>
<defs>
<clipPath id="clip0_9897_5542">
<rect width="16" height="16" fill="white"/>
</clipPath>
</defs>
</svg>
