<svg width="16" height="16" viewBox="0 0 16 16" fill="none" xmlns="http://www.w3.org/2000/svg">
<g clip-path="url(#clip0_9897_6103)">
<path d="M8 16C12.4183 16 16 12.4183 16 8C16 3.58172 12.4183 0 8 0C3.58172 0 0 3.58172 0 8C0 12.4183 3.58172 16 8 16Z" fill="#F0F0F0"/>
<path d="M15.5024 5.2179H0.497562C0.176031 6.08458 0 7.02193 0 8.00049C0 8.97905 0.176031 9.91646 0.497562 10.7831H15.5024C15.824 9.91646 16 8.97905 16 8.00049C16 7.02193 15.824 6.08458 15.5024 5.2179Z" fill="#A2001D"/>
<path d="M8.02269 16.0008C10.7628 16.0008 13.1808 14.6229 14.6226 12.5225H1.42285C2.86466 14.6229 5.2826 16.0008 8.02269 16.0008Z" fill="#6DA544"/>
<path d="M8.02269 0.000183105C10.7628 0.000183105 13.1808 1.37806 14.6226 3.47843H1.42285C2.86466 1.37806 5.2826 0.000183105 8.02269 0.000183105Z" fill="#6DA544"/>
<path d="M8.00003 5.2179L8.69069 7.34352H10.9258L9.11759 8.6574L9.80831 10.7831L8.00003 9.46936L6.19175 10.7831L6.8825 8.6574L5.07422 7.34352H7.30938L8.00003 5.2179Z" fill="#FFDA44"/>
</g>
<defs>
<clipPath id="clip0_9897_6103">
<rect width="16" height="16" fill="white"/>
</clipPath>
</defs>
</svg>
