<svg width="16" height="16" viewBox="0 0 16 16" fill="none" xmlns="http://www.w3.org/2000/svg">
<g clip-path="url(#clip0_9897_5391)">
<path d="M8 16C12.4183 16 16 12.4183 16 8C16 3.58172 12.4183 0 8 0C3.58172 0 0 3.58172 0 8C0 12.4183 3.58172 16 8 16Z" fill="#F0F0F0"/>
<path d="M8 5.91247H15.7244C15.5238 5.16828 15.2189 4.467 14.8258 3.8255H8V5.91247Z" fill="#338AF3"/>
<path d="M3.01973 14.2599H12.9795C13.7096 13.6784 14.3357 12.9721 14.8254 12.173H1.17383C1.66355 12.9721 2.28967 13.6784 3.01973 14.2599Z" fill="#338AF3"/>
<path d="M8 -0.000549316C8 0.695107 8 1.73858 8 1.73858H12.9799C11.6133 0.650201 9.88278 -0.000549316 8 -0.000549316Z" fill="#338AF3"/>
<path d="M8 5.91247H15.7244C15.5238 5.16828 15.2189 4.467 14.8258 3.8255H8V5.91247Z" fill="#338AF3"/>
<path d="M0 8.00006C0 8.72216 0.09625 9.4216 0.275594 10.087H15.7244C15.9038 9.4216 16 8.72216 16 8.00006H0Z" fill="#338AF3"/>
<path d="M6.95699 4.68215L5.97993 5.14175L6.50021 6.088L5.43927 5.88506L5.30484 6.95678L4.5659 6.16853L3.8269 6.95678L3.69249 5.88506L2.63155 6.08794L3.1518 5.14172L2.1748 4.68215L3.15184 4.22262L2.63155 3.27637L3.69246 3.47931L3.82693 2.40759L4.5659 3.19584L5.30487 2.40759L5.43927 3.47931L6.50024 3.27637L5.97996 4.22266L6.95699 4.68215Z" fill="#FFDA44"/>
</g>
<defs>
<clipPath id="clip0_9897_5391">
<rect width="16" height="16" fill="white"/>
</clipPath>
</defs>
</svg>
